<svg width="187" height="187" viewBox="0 0 187 187" fill="none" xmlns="http://www.w3.org/2000/svg">
<g filter="url(#filter0_di_20_173)">
<circle cx="85" cy="85" r="81" fill="#D9D9D9"/>
<circle cx="85" cy="85" r="83" stroke="#34BEED" stroke-width="4"/>
</g>
<path d="M115.15 63.2531C130.738 48.6458 132.095 22.9189 112.046 15.5428C104.058 12.604 95.4282 11 86.4251 11C45.3212 11 12 44.4348 12 85.6786C12 92.8513 13.0078 99.7878 14.889 106.353C20.8004 126.984 46.6859 127.41 62.3459 112.735L115.15 63.2531Z" fill="#E4E4E4"/>
<path d="M37 57V65L83.6809 87.8542C84.5131 88.2616 85.4869 88.2616 86.3191 87.8542L133 65V57C133 54.7909 131.209 53 129 53H41C38.7909 53 37 54.7909 37 57Z" fill="#A2A2A2"/>
<path d="M83.6584 96.8292L37 73.5V113C37 115.209 38.7909 117 41 117H129C131.209 117 133 115.209 133 113V73.5L86.3416 96.8292C85.4971 97.2515 84.5029 97.2515 83.6584 96.8292Z" fill="#A2A2A2"/>
<defs>
<filter id="filter0_di_20_173" x="-6" y="-6" width="193" height="193" filterUnits="userSpaceOnUse" color-interpolation-filters="sRGB">
<feFlood flood-opacity="0" result="BackgroundImageFix"/>
<feColorMatrix in="SourceAlpha" type="matrix" values="0 0 0 0 0 0 0 0 0 0 0 0 0 0 0 0 0 0 127 0" result="hardAlpha"/>
<feMorphology radius="3" operator="erode" in="SourceAlpha" result="effect1_dropShadow_20_173"/>
<feOffset dx="18" dy="18"/>
<feGaussianBlur stdDeviation="1"/>
<feComposite in2="hardAlpha" operator="out"/>
<feColorMatrix type="matrix" values="0 0 0 0 0.737255 0 0 0 0 0.741176 0 0 0 0 0.764706 0 0 0 1 0"/>
<feBlend mode="normal" in2="BackgroundImageFix" result="effect1_dropShadow_20_173"/>
<feBlend mode="normal" in="SourceGraphic" in2="effect1_dropShadow_20_173" result="shape"/>
<feColorMatrix in="SourceAlpha" type="matrix" values="0 0 0 0 0 0 0 0 0 0 0 0 0 0 0 0 0 0 127 0" result="hardAlpha"/>
<feOffset dx="-6" dy="-6"/>
<feGaussianBlur stdDeviation="7"/>
<feComposite in2="hardAlpha" operator="arithmetic" k2="-1" k3="1"/>
<feColorMatrix type="matrix" values="0 0 0 0 0 0 0 0 0 0 0 0 0 0 0 0 0 0 0.26 0"/>
<feBlend mode="normal" in2="shape" result="effect2_innerShadow_20_173"/>
</filter>
</defs>
</svg>
