<svg width="187" height="187" viewBox="0 0 187 187" fill="none" xmlns="http://www.w3.org/2000/svg">
<g filter="url(#filter0_di_20_139)">
<circle cx="85" cy="85" r="81" fill="#D9D9D9"/>
<circle cx="85" cy="85" r="83" stroke="#34BEED" stroke-width="4"/>
</g>
<path d="M115.15 63.2531C130.738 48.6458 132.095 22.9189 112.046 15.5428C104.058 12.604 95.4282 11 86.4251 11C45.3212 11 12 44.4348 12 85.6786C12 92.8513 13.0078 99.7878 14.889 106.353C20.8004 126.984 46.6859 127.41 62.3459 112.735L115.15 63.2531Z" fill="#E4E4E4"/>
<path d="M89.2095 67.1917L82.2225 94.8735C82.2225 94.8735 76.8806 74.0949 76.0116 71.1474C75.1421 68.1953 73.3537 66.9019 70.817 66.9019C68.2796 66.9019 66.4879 68.1952 65.6189 71.1474C64.7535 74.0946 59.41 94.8735 59.41 94.8735L52.4186 67.1917H44C44 67.1917 52.0856 96.7262 53.1845 100.148C54.0395 102.817 56.0647 105 59.0669 105C62.4996 105 64.1047 102.471 64.8482 100.148C65.5835 97.8378 70.8171 78.3309 70.8171 78.3309C70.8171 78.3309 76.0507 97.8382 76.7845 100.148C77.5271 102.471 79.1326 105 82.5642 105C85.5688 105 87.5903 102.818 88.4506 100.148C89.5472 96.7272 97.6272 67.1917 97.6272 67.1917H89.2095ZM118.074 104.715H126.044V78.6631H118.074V104.715ZM117.302 69.5543C117.302 72.0652 119.398 74.1034 121.972 74.1034C124.65 74.1034 126.747 72.1072 126.747 69.5543C126.747 67.0006 124.65 65 121.972 65C119.398 65 117.302 67.0409 117.302 69.5543ZM101.88 104.715H109.847V78.6631H101.88V104.715ZM101.105 69.5543C101.105 72.0652 103.197 74.1034 105.772 74.1034C108.449 74.1034 110.55 72.1072 110.55 69.5543C110.55 67.0006 108.449 65 105.772 65C103.197 65 101.105 67.0409 101.105 69.5543Z" fill="#A1A0A4"/>
<defs>
<filter id="filter0_di_20_139" x="-6" y="-6" width="193" height="193" filterUnits="userSpaceOnUse" color-interpolation-filters="sRGB">
<feFlood flood-opacity="0" result="BackgroundImageFix"/>
<feColorMatrix in="SourceAlpha" type="matrix" values="0 0 0 0 0 0 0 0 0 0 0 0 0 0 0 0 0 0 127 0" result="hardAlpha"/>
<feMorphology radius="3" operator="erode" in="SourceAlpha" result="effect1_dropShadow_20_139"/>
<feOffset dx="18" dy="18"/>
<feGaussianBlur stdDeviation="1"/>
<feComposite in2="hardAlpha" operator="out"/>
<feColorMatrix type="matrix" values="0 0 0 0 0.737255 0 0 0 0 0.741176 0 0 0 0 0.764706 0 0 0 1 0"/>
<feBlend mode="normal" in2="BackgroundImageFix" result="effect1_dropShadow_20_139"/>
<feBlend mode="normal" in="SourceGraphic" in2="effect1_dropShadow_20_139" result="shape"/>
<feColorMatrix in="SourceAlpha" type="matrix" values="0 0 0 0 0 0 0 0 0 0 0 0 0 0 0 0 0 0 127 0" result="hardAlpha"/>
<feOffset dx="-6" dy="-6"/>
<feGaussianBlur stdDeviation="7"/>
<feComposite in2="hardAlpha" operator="arithmetic" k2="-1" k3="1"/>
<feColorMatrix type="matrix" values="0 0 0 0 0 0 0 0 0 0 0 0 0 0 0 0 0 0 0.26 0"/>
<feBlend mode="normal" in2="shape" result="effect2_innerShadow_20_139"/>
</filter>
</defs>
</svg>
