<svg width="1920" height="310" viewBox="0 0 1920 310" fill="none" xmlns="http://www.w3.org/2000/svg">
<g filter="url(#filter0_i_4_208)">
<path fill-rule="evenodd" clip-rule="evenodd" d="M-9.5 3H295.647C343.136 3.00003 401.436 3 471.46 62.5109C519.455 103.3 564.418 128.992 651.819 128.992H959.492H961.008H1268.68C1356.08 128.992 1401.05 103.3 1449.04 62.5109C1519.06 3 1577.36 3.00003 1624.85 3H1930V322H961.008H959.492H-9.5V3Z" fill="#E1E2E6"/>
</g>
<path d="M295.647 3V0.5V3ZM-9.5 3V0.5H-12V3H-9.5ZM471.46 62.5109L473.079 60.606L471.46 62.5109ZM1449.04 62.5109L1450.66 64.4159L1449.04 62.5109ZM1624.85 3V0.5V3ZM1930 3H1932.5V0.5H1930V3ZM1930 322V324.5H1932.5V322H1930ZM-9.5 322H-12V324.5H-9.5V322ZM295.647 0.5H-9.5V5.5H295.647V0.5ZM473.079 60.606C437.786 30.6122 405.365 15.5519 375.719 8.01593C346.115 0.490715 319.377 0.500014 295.647 0.5V5.5C319.406 5.50001 345.563 5.50931 374.487 12.8618C403.369 20.2036 435.109 34.8987 469.841 64.4159L473.079 60.606ZM651.819 126.492C608.374 126.492 575.616 120.108 547.809 108.733C519.991 97.354 496.982 80.921 473.079 60.606L469.841 64.4159C493.932 84.8902 517.403 101.698 545.916 113.361C574.44 125.029 607.864 131.492 651.819 131.492V126.492ZM959.492 126.492H651.819V131.492H959.492V126.492ZM959.492 131.492H961.008V126.492H959.492V131.492ZM961.008 131.492H1268.68V126.492H961.008V131.492ZM1268.68 131.492C1312.64 131.492 1346.06 125.029 1374.58 113.361C1403.1 101.698 1426.57 84.8902 1450.66 64.4159L1447.42 60.606C1423.52 80.921 1400.51 97.354 1372.69 108.733C1344.88 120.108 1312.13 126.492 1268.68 126.492V131.492ZM1450.66 64.4159C1485.39 34.8987 1517.13 20.2036 1546.01 12.8618C1574.94 5.50931 1601.09 5.50001 1624.85 5.5V0.5C1601.12 0.500014 1574.39 0.490715 1544.78 8.01593C1515.14 15.5519 1482.71 30.6122 1447.42 60.606L1450.66 64.4159ZM1624.85 5.5H1930V0.5H1624.85V5.5ZM1927.5 3V322H1932.5V3H1927.5ZM1930 319.5H961.008V324.5H1930V319.5ZM961.008 319.5H959.492V324.5H961.008V319.5ZM-9.5 324.5H959.492V319.5H-9.5V324.5ZM-12 3V322H-7V3H-12Z" fill="#36BFED"/>
<defs>
<filter id="filter0_i_4_208" x="-12" y="0.5" width="1944.5" height="358" filterUnits="userSpaceOnUse" color-interpolation-filters="sRGB">
<feFlood flood-opacity="0" result="BackgroundImageFix"/>
<feBlend mode="normal" in="SourceGraphic" in2="BackgroundImageFix" result="shape"/>
<feColorMatrix in="SourceAlpha" type="matrix" values="0 0 0 0 0 0 0 0 0 0 0 0 0 0 0 0 0 0 127 0" result="hardAlpha"/>
<feOffset dy="34"/>
<feGaussianBlur stdDeviation="20"/>
<feComposite in2="hardAlpha" operator="arithmetic" k2="-1" k3="1"/>
<feColorMatrix type="matrix" values="0 0 0 0 0 0 0 0 0 0 0 0 0 0 0 0 0 0 0.09 0"/>
<feBlend mode="normal" in2="shape" result="effect1_innerShadow_4_208"/>
</filter>
</defs>
</svg>
